<svg xmlns="http://www.w3.org/2000/svg" viewBox="0 0 32 32" fill="none">
  <!-- Chain link (left) -->
  <path d="M8 10C8 7.79 9.79 6 12 6h2a2 2 0 0 1 0 4h-2v4h2a2 2 0 0 1 0 4h-2c-2.21 0-4-1.79-4-4V10Z" fill="#10B981" opacity="0.85"/>
  <!-- Chain link (right) -->
  <path d="M24 22c0 2.21-1.79 4-4 4h-2a2 2 0 0 1 0-4h2v-4h-2a2 2 0 0 1 0-4h2c2.21 0 4 1.79 4 4v4Z" fill="#10B981" opacity="0.85"/>
  <!-- Vine connector -->
  <path d="M14 14c2-3 4-3 6-1" stroke="#10B981" stroke-width="2" stroke-linecap="round" opacity="0.6"/>
  <!-- Vine leaf accent -->
  <path d="M22 9c-1.5 0-3 1-3 3 2 0 3.5-1 3-3Z" fill="#10B981" opacity="0.5"/>
  <!-- Shield outline (security) -->
  <path d="M16 2L6 7v5c0 7.73 4.66 14.15 10 16 5.34-1.85 10-8.27 10-16V7L16 2Z" stroke="#10B981" stroke-width="1.5" stroke-linejoin="round" fill="none" opacity="0.3"/>
</svg>
